<svg width="28" height="27" viewBox="0 0 28 27" fill="none" xmlns="http://www.w3.org/2000/svg">
<path d="M26.0956 19.919C26.0956 20.74 25.8658 21.5171 25.4608 22.1739C25.2309 22.5679 24.9354 22.9182 24.596 23.2028C23.8298 23.8924 22.8228 24.2974 21.7172 24.2974C20.3818 24.2974 19.1887 23.6954 18.4006 22.7541C18.3787 22.7212 18.3459 22.6993 18.324 22.6665C18.1926 22.5132 18.0722 22.349 17.9737 22.1739C17.5687 21.5171 17.3389 20.74 17.3389 19.919C17.3389 18.5398 17.9737 17.303 18.9808 16.5039C19.736 15.9019 20.6883 15.5406 21.7172 15.5406C22.8118 15.5406 23.797 15.9347 24.5632 16.6024C24.6946 16.7009 24.8149 16.8214 24.9244 16.9418C25.6468 17.7299 26.0956 18.7697 26.0956 19.919Z" stroke="white" stroke-width="1.45946" stroke-miterlimit="10" stroke-linecap="round" stroke-linejoin="round"/>
<path d="M23.3482 19.8972H20.0858" stroke="white" stroke-width="1.45946" stroke-miterlimit="10" stroke-linecap="round" stroke-linejoin="round"/>
<path d="M21.7172 18.2987V21.572" stroke="white" stroke-width="1.45946" stroke-miterlimit="10" stroke-linecap="round" stroke-linejoin="round"/>
<path d="M4.38879 8.35999L14.0541 13.9533L23.6537 8.39279" stroke="white" stroke-width="1.45946" stroke-linecap="round" stroke-linejoin="round"/>
<path d="M14.0547 23.8701V13.9421" stroke="white" stroke-width="1.45946" stroke-linecap="round" stroke-linejoin="round"/>
<path d="M24.5736 10.2538V16.4492C24.5736 16.5039 24.5736 16.5477 24.5627 16.6024C23.7965 15.9347 22.8113 15.5407 21.7167 15.5407C20.6878 15.5407 19.7355 15.9019 18.9803 16.5039C17.9732 17.303 17.3384 18.5399 17.3384 19.9191C17.3384 20.74 17.5682 21.5172 17.9732 22.1739C18.0717 22.349 18.1921 22.5133 18.3235 22.6665L16.3204 23.772C15.0726 24.4726 13.0366 24.4726 11.7888 23.772L5.94363 20.532C4.61917 19.7986 3.53552 17.9597 3.53552 16.4492V10.2538C3.53552 8.74322 4.61917 6.90433 5.94363 6.17095L11.7888 2.93092C13.0366 2.23038 15.0726 2.23038 16.3204 2.93092L22.1655 6.17095C23.49 6.90433 24.5736 8.74322 24.5736 10.2538Z" stroke="white" stroke-width="1.45946" stroke-linecap="round" stroke-linejoin="round"/>
</svg>
