<svg width="28" height="27" viewBox="0 0 28 27" fill="none" xmlns="http://www.w3.org/2000/svg">
<path d="M18.4353 9.05505H9.67737V17.813H18.4353V9.05505Z" stroke="white" stroke-width="1.45966" stroke-linecap="round" stroke-linejoin="round"/>
<path d="M6.39317 24.3814C8.1995 24.3814 9.6774 22.9035 9.6774 21.0972V17.813H6.39317C4.58685 17.813 3.10895 19.2909 3.10895 21.0972C3.10895 22.9035 4.58685 24.3814 6.39317 24.3814Z" stroke="white" stroke-width="1.45966" stroke-linecap="round" stroke-linejoin="round"/>
<path d="M6.39317 9.05503H9.6774V5.7708C9.6774 3.96447 8.1995 2.48657 6.39317 2.48657C4.58685 2.48657 3.10895 3.96447 3.10895 5.7708C3.10895 7.57712 4.58685 9.05503 6.39317 9.05503Z" stroke="white" stroke-width="1.45966" stroke-linecap="round" stroke-linejoin="round"/>
<path d="M18.4353 9.05503H21.7195C23.5259 9.05503 25.0038 7.57712 25.0038 5.7708C25.0038 3.96447 23.5259 2.48657 21.7195 2.48657C19.9132 2.48657 18.4353 3.96447 18.4353 5.7708V9.05503Z" stroke="white" stroke-width="1.45966" stroke-linecap="round" stroke-linejoin="round"/>
<path d="M21.7195 24.3814C23.5259 24.3814 25.0038 22.9035 25.0038 21.0972C25.0038 19.2909 23.5259 17.813 21.7195 17.813H18.4353V21.0972C18.4353 22.9035 19.9132 24.3814 21.7195 24.3814Z" stroke="white" stroke-width="1.45966" stroke-linecap="round" stroke-linejoin="round"/>
</svg>
