<svg width="71" height="24" viewBox="0 0 71 24" fill="none" xmlns="http://www.w3.org/2000/svg">
<rect x="0.554688" y="0.270264" width="69.9189" height="23.6757" rx="11.8378" fill="#CAFECD"/>
<path d="M22.0891 16.1082H20.4859L22.9287 9.03199H24.8567L27.2961 16.1082H25.6929L23.9204 10.649H23.8651L22.0891 16.1082ZM21.9889 13.3268H25.7758V14.4946H21.9889V13.3268ZM30.271 16.2118C29.7273 16.2118 29.2597 16.0966 28.8682 15.8663C28.4789 15.6336 28.1794 15.3112 27.9698 14.8988C27.7625 14.4865 27.6589 14.012 27.6589 13.4753C27.6589 12.9317 27.7637 12.4549 27.9733 12.0449C28.1852 11.6326 28.4858 11.3112 28.8751 11.0809C29.2644 10.8482 29.7273 10.7319 30.264 10.7319C30.727 10.7319 31.1324 10.816 31.4803 10.9842C31.8281 11.1523 32.1033 11.3884 32.306 11.6925C32.5087 11.9965 32.6205 12.3535 32.6412 12.7636H31.2522C31.2131 12.4987 31.1094 12.2856 30.9413 12.1244C30.7754 11.9608 30.5577 11.879 30.2882 11.879C30.0602 11.879 29.8609 11.9412 29.6905 12.0656C29.5223 12.1877 29.391 12.3662 29.2966 12.6012C29.2022 12.8361 29.1549 13.1206 29.1549 13.4546C29.1549 13.7932 29.201 14.0811 29.2931 14.3184C29.3876 14.5556 29.52 14.7365 29.6905 14.8608C29.8609 14.9852 30.0602 15.0474 30.2882 15.0474C30.4564 15.0474 30.6073 15.0129 30.7409 14.9438C30.8768 14.8747 30.9885 14.7745 31.076 14.6432C31.1658 14.5096 31.2246 14.3495 31.2522 14.1629H32.6412C32.6182 14.5683 32.5076 14.9253 32.3095 15.234C32.1137 15.5404 31.8431 15.7799 31.4975 15.9527C31.152 16.1254 30.7432 16.2118 30.271 16.2118ZM36.4065 10.801V11.9067H33.2104V10.801H36.4065ZM33.936 9.52953H35.4079V14.4773C35.4079 14.6132 35.4286 14.7192 35.4701 14.7952C35.5116 14.8689 35.5692 14.9207 35.6429 14.9507C35.7189 14.9806 35.8064 14.9956 35.9055 14.9956C35.9746 14.9956 36.0437 14.9898 36.1128 14.9783C36.1819 14.9645 36.2348 14.9541 36.2717 14.9472L36.5032 16.0425C36.4295 16.0655 36.3258 16.092 36.1922 16.122C36.0586 16.1542 35.8962 16.1738 35.7051 16.1807C35.3503 16.1945 35.0394 16.1473 34.7722 16.0391C34.5073 15.9308 34.3011 15.7626 34.1537 15.5346C34.0063 15.3066 33.9337 15.0186 33.936 14.6708V9.52953ZM37.3653 16.1082V10.801H38.8372V16.1082H37.3653ZM38.1047 10.1169C37.8858 10.1169 37.6981 10.0443 37.5415 9.89923C37.3871 9.75181 37.31 9.5756 37.31 9.37059C37.31 9.16789 37.3871 8.99398 37.5415 8.84886C37.6981 8.70144 37.8858 8.62773 38.1047 8.62773C38.3235 8.62773 38.5101 8.70144 38.6644 8.84886C38.821 8.99398 38.8994 9.16789 38.8994 9.37059C38.8994 9.5756 38.821 9.75181 38.6644 9.89923C38.5101 10.0443 38.3235 10.1169 38.1047 10.1169ZM44.964 10.801L43.1086 16.1082H41.4501L39.5947 10.801H41.1495L42.2517 14.5982H42.307L43.4057 10.801H44.964ZM47.9648 16.2118C47.4189 16.2118 46.949 16.1012 46.5551 15.8801C46.1635 15.6567 45.8618 15.3411 45.6499 14.9334C45.438 14.5234 45.332 14.0385 45.332 13.4788C45.332 12.9329 45.438 12.4537 45.6499 12.0414C45.8618 11.6291 46.1601 11.3078 46.5448 11.0774C46.9317 10.8471 47.3855 10.7319 47.9061 10.7319C48.2562 10.7319 48.5821 10.7884 48.8839 10.9012C49.188 11.0118 49.4529 11.1788 49.6786 11.4022C49.9066 11.6257 50.084 11.9067 50.2107 12.2453C50.3374 12.5816 50.4007 12.9755 50.4007 13.427V13.8312H45.9194V12.919H49.0152C49.0152 12.7071 48.9691 12.5194 48.877 12.3559C48.7849 12.1923 48.657 12.0645 48.4935 11.9723C48.3322 11.8779 48.1445 11.8307 47.9303 11.8307C47.7068 11.8307 47.5087 11.8825 47.336 11.9861C47.1655 12.0875 47.0319 12.2246 46.9352 12.3973C46.8384 12.5678 46.7889 12.7578 46.7866 12.9674V13.8347C46.7866 14.0973 46.835 14.3241 46.9317 14.5153C47.0308 14.7065 47.1701 14.8539 47.3498 14.9576C47.5295 15.0612 47.7425 15.1131 47.989 15.1131C48.1526 15.1131 48.3023 15.09 48.4382 15.044C48.5741 14.9979 48.6904 14.9288 48.7872 14.8367C48.8839 14.7445 48.9576 14.6316 49.0083 14.4981L50.3696 14.5879C50.3005 14.915 50.1589 15.2006 49.9446 15.4448C49.7327 15.6866 49.4586 15.8755 49.1223 16.0114C48.7883 16.145 48.4025 16.2118 47.9648 16.2118Z" fill="#66BB6A"/>
</svg>
