<svg width="39" height="39" viewBox="0 0 39 39" fill="none" xmlns="http://www.w3.org/2000/svg">
<circle cx="19.3781" cy="19.4865" r="18.973" fill="url(#paint0_linear_1_319)" fill-opacity="0.75"/>
<circle cx="19.3781" cy="19.4865" r="18.4865" stroke="url(#paint1_linear_1_319)" stroke-opacity="0.5" stroke-width="0.972973"/>
<path d="M14.9192 24.027H24.8029C26.3435 24.027 27.1543 23.2162 27.1543 21.6757V11.8649H12.5597V21.6757C12.5678 23.2162 13.3786 24.027 14.9192 24.027Z" stroke="white" stroke-width="1.45946" stroke-miterlimit="10" stroke-linecap="round" stroke-linejoin="round"/>
<path d="M11.7565 11.8647H27.9727" stroke="white" stroke-width="1.45946" stroke-miterlimit="10" stroke-linecap="round" stroke-linejoin="round"/>
<path d="M16.6211 28.0815L19.8648 26.4596V24.0269" stroke="white" stroke-width="1.45946" stroke-miterlimit="10" stroke-linecap="round" stroke-linejoin="round"/>
<path d="M23.1089 28.0813L19.8652 26.4595" stroke="white" stroke-width="1.45946" stroke-miterlimit="10" stroke-linecap="round" stroke-linejoin="round"/>
<path d="M16.2168 19.1625L18.7712 17.0298C18.9739 16.8595 19.2415 16.9081 19.3794 17.1352L20.3525 18.757C20.4904 18.9841 20.758 19.0246 20.9607 18.8625L23.5151 16.7297" stroke="white" stroke-width="1.45946" stroke-miterlimit="10" stroke-linecap="round" stroke-linejoin="round"/>
<defs>
<linearGradient id="paint0_linear_1_319" x1="0.405151" y1="0.51355" x2="38.3511" y2="38.4595" gradientUnits="userSpaceOnUse">
<stop stop-color="#070D28"/>
<stop offset="1" stop-color="#0C898D"/>
</linearGradient>
<linearGradient id="paint1_linear_1_319" x1="0.405151" y1="0.51355" x2="38.3511" y2="38.4595" gradientUnits="userSpaceOnUse">
<stop stop-color="white"/>
<stop offset="1" stop-opacity="0"/>
</linearGradient>
</defs>
</svg>
