<svg width="77" height="24" viewBox="0 0 77 24" fill="none" xmlns="http://www.w3.org/2000/svg">
<rect x="0.0546875" y="0.27002" width="76.9189" height="23.6757" rx="11.8378" fill="#FFDCDC"/>
<path d="M21.6694 9.03174V16.1079H20.1733V9.03174H21.6694ZM24.3446 13.0397V16.1079H22.8727V10.8008H24.2754V11.7371H24.3376C24.4551 11.4285 24.6521 11.1843 24.9285 11.0046C25.2049 10.8227 25.54 10.7317 25.9339 10.7317C26.3025 10.7317 26.6238 10.8123 26.8979 10.9735C27.172 11.1348 27.3851 11.3651 27.5371 11.6646C27.6891 11.9617 27.7652 12.3164 27.7652 12.7288V16.1079H26.2933V12.9914C26.2956 12.6666 26.2126 12.4132 26.0445 12.2312C25.8763 12.0469 25.6448 11.9548 25.35 11.9548C25.1519 11.9548 24.9768 11.9974 24.8248 12.0826C24.6751 12.1679 24.5576 12.2923 24.4724 12.4558C24.3895 12.617 24.3469 12.8117 24.3446 13.0397ZM30.4386 16.2081C30.1 16.2081 29.7982 16.1494 29.5333 16.0319C29.2684 15.9121 29.0588 15.7359 28.9045 15.5033C28.7525 15.2683 28.6765 14.9758 28.6765 14.6256C28.6765 14.3308 28.7306 14.0832 28.8389 13.8828C28.9471 13.6824 29.0945 13.5211 29.2811 13.3991C29.4677 13.277 29.6796 13.1848 29.9169 13.1227C30.1564 13.0605 30.4075 13.0167 30.6701 12.9914C30.9787 12.9591 31.2275 12.9292 31.4164 12.9015C31.6053 12.8716 31.7423 12.8278 31.8276 12.7702C31.9128 12.7126 31.9554 12.6274 31.9554 12.5145V12.4938C31.9554 12.275 31.8863 12.1057 31.7481 11.9859C31.6122 11.8661 31.4187 11.8062 31.1676 11.8062C30.9027 11.8062 30.692 11.865 30.5353 11.9824C30.3787 12.0976 30.275 12.2427 30.2244 12.4178L28.863 12.3072C28.9321 11.9848 29.068 11.706 29.2707 11.4711C29.4734 11.2338 29.7349 11.0519 30.0551 10.9252C30.3775 10.7962 30.7507 10.7317 31.1745 10.7317C31.4694 10.7317 31.7515 10.7662 32.0211 10.8353C32.2929 10.9044 32.5336 11.0116 32.7432 11.1567C32.9551 11.3018 33.1221 11.4884 33.2442 11.7164C33.3663 11.9421 33.4273 12.2128 33.4273 12.5284V16.1079H32.0314V15.372H31.99C31.9047 15.5378 31.7907 15.6841 31.6479 15.8108C31.5051 15.9352 31.3335 16.033 31.1331 16.1045C30.9327 16.1736 30.7012 16.2081 30.4386 16.2081ZM30.8601 15.1923C31.0766 15.1923 31.2678 15.1497 31.4337 15.0645C31.5995 14.9769 31.7297 14.8594 31.8241 14.712C31.9185 14.5646 31.9658 14.3976 31.9658 14.211V13.6478C31.9197 13.6778 31.8564 13.7054 31.7757 13.7308C31.6974 13.7538 31.6087 13.7757 31.5097 13.7964C31.4106 13.8148 31.3116 13.8321 31.2125 13.8482C31.1135 13.8621 31.0237 13.8747 30.943 13.8862C30.7703 13.9116 30.6194 13.9519 30.4904 14.0072C30.3614 14.0625 30.2612 14.1373 30.1898 14.2318C30.1184 14.3239 30.0827 14.4391 30.0827 14.5773C30.0827 14.7777 30.1553 14.9309 30.3004 15.0368C30.4478 15.1405 30.6344 15.1923 30.8601 15.1923ZM36.9671 16.2116C36.4235 16.2116 35.9559 16.0964 35.5643 15.866C35.175 15.6334 34.8756 15.3109 34.666 14.8986C34.4587 14.4863 34.355 14.0118 34.355 13.4751C34.355 12.9315 34.4598 12.4547 34.6694 12.0446C34.8813 11.6323 35.1819 11.311 35.5712 11.0807C35.9605 10.848 36.4235 10.7317 36.9602 10.7317C37.4232 10.7317 37.8286 10.8158 38.1764 10.9839C38.5242 11.1521 38.7995 11.3882 39.0022 11.6922C39.2049 11.9963 39.3166 12.3533 39.3374 12.7633H37.9484C37.9092 12.4984 37.8056 12.2854 37.6374 12.1241C37.4716 11.9606 37.2539 11.8788 36.9844 11.8788C36.7563 11.8788 36.5571 11.941 36.3866 12.0654C36.2185 12.1875 36.0872 12.366 35.9928 12.6009C35.8983 12.8359 35.8511 13.1203 35.8511 13.4543C35.8511 13.793 35.8972 14.0809 35.9893 14.3181C36.0837 14.5554 36.2162 14.7362 36.3866 14.8606C36.5571 14.985 36.7563 15.0472 36.9844 15.0472C37.1525 15.0472 37.3034 15.0126 37.437 14.9435C37.5729 14.8744 37.6846 14.7742 37.7722 14.6429C37.862 14.5093 37.9207 14.3492 37.9484 14.1627H39.3374C39.3143 14.5681 39.2038 14.9251 39.0057 15.2338C38.8099 15.5401 38.5392 15.7797 38.1937 15.9524C37.8482 16.1252 37.4393 16.2116 36.9671 16.2116ZM43.1026 10.8008V11.9064H39.9066V10.8008H43.1026ZM40.6322 9.52929H42.1041V14.4771C42.1041 14.613 42.1248 14.7189 42.1663 14.7949C42.2077 14.8687 42.2653 14.9205 42.339 14.9504C42.415 14.9804 42.5026 14.9953 42.6016 14.9953C42.6707 14.9953 42.7398 14.9896 42.8089 14.9781C42.878 14.9643 42.931 14.9539 42.9679 14.947L43.1994 16.0423C43.1256 16.0653 43.022 16.0918 42.8884 16.1217C42.7548 16.154 42.5924 16.1736 42.4012 16.1805C42.0465 16.1943 41.7355 16.1471 41.4683 16.0388C41.2034 15.9305 40.9973 15.7624 40.8498 15.5344C40.7024 15.3063 40.6299 15.0184 40.6322 14.6706V9.52929ZM44.0614 16.1079V10.8008H45.5333V16.1079H44.0614ZM44.8008 10.1167C44.582 10.1167 44.3943 10.0441 44.2376 9.89899C44.0833 9.75157 44.0061 9.57536 44.0061 9.37035C44.0061 9.16765 44.0833 8.99374 44.2376 8.84862C44.3943 8.7012 44.582 8.62749 44.8008 8.62749C45.0196 8.62749 45.2062 8.7012 45.3606 8.84862C45.5172 8.99374 45.5955 9.16765 45.5955 9.37035C45.5955 9.57536 45.5172 9.75157 45.3606 9.89899C45.2062 10.0441 45.0196 10.1167 44.8008 10.1167ZM51.6602 10.8008L49.8048 16.1079H48.1463L46.2909 10.8008H47.8457L48.9479 14.598H49.0032L50.1019 10.8008H51.6602ZM54.661 16.2116C54.1151 16.2116 53.6452 16.101 53.2513 15.8799C52.8597 15.6564 52.5579 15.3409 52.346 14.9332C52.1341 14.5231 52.0282 14.0383 52.0282 13.4785C52.0282 12.9326 52.1341 12.4535 52.346 12.0412C52.5579 11.6289 52.8562 11.3075 53.2409 11.0772C53.6279 10.8469 54.0817 10.7317 54.6022 10.7317C54.9524 10.7317 55.2783 10.7881 55.5801 10.901C55.8841 11.0116 56.149 11.1785 56.3747 11.402C56.6028 11.6254 56.7801 11.9064 56.9068 12.245C57.0335 12.5813 57.0969 12.9752 57.0969 13.4267V13.831H52.6155V12.9188H55.7114C55.7114 12.7069 55.6653 12.5192 55.5731 12.3556C55.481 12.1921 55.3532 12.0642 55.1896 11.9721C55.0284 11.8776 54.8407 11.8304 54.6264 11.8304C54.403 11.8304 54.2049 11.8823 54.0321 11.9859C53.8617 12.0873 53.7281 12.2243 53.6313 12.3971C53.5346 12.5675 53.4851 12.7576 53.4828 12.9672V13.8344C53.4828 14.097 53.5311 14.3239 53.6279 14.5151C53.7269 14.7063 53.8663 14.8537 54.046 14.9573C54.2256 15.061 54.4387 15.1128 54.6852 15.1128C54.8487 15.1128 54.9984 15.0898 55.1343 15.0437C55.2702 14.9977 55.3866 14.9285 55.4833 14.8364C55.5801 14.7443 55.6538 14.6314 55.7044 14.4978L57.0658 14.5876C56.9967 14.9147 56.855 15.2004 56.6408 15.4445C56.4289 15.6864 56.1548 15.8753 55.8185 16.0112C55.4845 16.1448 55.0986 16.2116 54.661 16.2116Z" fill="#FF5555"/>
</svg>
