<svg width="28" height="28" viewBox="0 0 28 28" fill="none" xmlns="http://www.w3.org/2000/svg">
<path d="M4.20367 10.7297V17.0464C4.20367 19.3672 4.20367 19.3672 6.39316 20.8451L12.4142 24.3264C13.3229 24.8519 14.8008 24.8519 15.6985 24.3264L21.7196 20.8451C23.909 19.3672 23.909 19.3672 23.909 17.0573V10.7297C23.909 8.41982 23.909 8.41982 21.7196 6.94192L15.6985 3.46064C14.8008 2.93516 13.3229 2.93516 12.4142 3.46064L6.39316 6.94192C4.20367 8.41982 4.20367 8.41982 4.20367 10.7297Z" stroke="white" stroke-width="1.45966" stroke-linecap="round" stroke-linejoin="round"/>
<path d="M14.0563 17.1777C15.8701 17.1777 17.3405 15.7073 17.3405 13.8935C17.3405 12.0797 15.8701 10.6093 14.0563 10.6093C12.2425 10.6093 10.7721 12.0797 10.7721 13.8935C10.7721 15.7073 12.2425 17.1777 14.0563 17.1777Z" stroke="white" stroke-width="1.45966" stroke-linecap="round" stroke-linejoin="round"/>
</svg>
